<svg xmlns="http://www.w3.org/2000/svg" width="670" height="602" viewBox="0 0 692 622" font-family="Cascadia Code, Consolas">
  <defs>
    <linearGradient id="linearGradient-1" x1="50%" x2="50%" y1="0%" y2="100%">
      <stop offset="0%" stop-color="#ffffff"/>
      <stop offset="100%" stop-color="#d1cfcd"/>
    </linearGradient>
    <linearGradient id="linearGradient-2" x1="50%" x2="50%" y1="0%" y2="100%">
      <stop offset="0%" stop-color="#ffffff"/>
      <stop offset="100%" stop-color="#d1cfcd"/>
    </linearGradient>
  </defs>
  <g id="dom" fill="none" fill-rule="evenodd" stroke="none" stroke-width="1" transform="translate(0 20)">
    <g id="metric-all.svg">
      <rect x="163" y="208" width="266" height="198" id="Rectangle-0" stroke="#dbaf88" stroke-width="2" />
      <text id="Introduction" fill="#643b0c" font-size="16" font-weight="bold">
        <tspan x="170" y="228">textContent...</tspan>
      </text>
      <path id="Rectangle-1" fill="#dbaf88" d="M491 162v290H117V162h374zm-25 25H142v240h324V187z"/>
      <path id="Rectangle-2" stroke="#dbaf88" stroke-width="2" d="M141 62h326v500H141z"/>
      <text id="scrollHeight" fill="#af6e24" font-size="14" font-weight="normal" transform="rotate(-90 592 310)">
        <tspan x="541.6" y="314.5">scrollHeight</tspan>
      </text>
      <text id="offsetHeight" fill="#af6e24" font-size="14" font-weight="normal" transform="rotate(-90 552 310)">
        <tspan x="501.6" y="314.5">offsetHeight</tspan>
      </text>
      <text id="scrollTop" fill="#af6e24" font-size="14" font-weight="normal" transform="rotate(-90 618 125)">
        <tspan x="580.2" y="129.5">scrollTop</tspan>
      </text>
      <path id="Line-27" stroke="#af6e24" stroke-dasharray="3,6" stroke-linecap="square" stroke-width="2" d="M466.5 62H640"/>
      <path id="Line-28" stroke="#af6e24" stroke-dasharray="3,6" stroke-linecap="square" stroke-width="2" d="M492.5 163h92.14"/>
      <path id="Line-29" stroke="#af6e24" stroke-dasharray="3,6" stroke-linecap="square" stroke-width="2" d="M492.5 451h92.14"/>
      <path id="Line-33" stroke="#af6e24" stroke-dasharray="3,6" stroke-linecap="square" stroke-width="2" d="M467.5 189H640"/>
      <path id="Line-32" stroke="#af6e24" stroke-dasharray="3,6" stroke-linecap="square" stroke-width="2" d="M467.5 427h72.14"/>
      <path id="Line-26" stroke="#af6e24" stroke-dasharray="3,6" stroke-linecap="square" stroke-width="2" d="M466.5 561h148.14"/>
      <path id="Line-25" fill="#af6e24" fill-rule="nonzero" d="M605 64.5l7 14h-6v466h6l-7 14-7-14h6v-466h-6l7-14z"/>
      <path id="Line-30" fill="#af6e24" fill-rule="nonzero" d="M565 164.5l7 14h-6v255h6l-7 14-7-14h6v-255h-6l7-14z"/>
      <text id="clientHeight" fill="#af6e24" font-size="14" font-weight="normal" transform="rotate(-90 510 304)">
        <tspan x="459.6" y="308.5">clientHeight</tspan>
      </text>
      <path id="Line-34" fill="#af6e24" fill-rule="nonzero" d="M523 191.5l7 14h-6v206h6l-7 14-7-14h6v-206h-6l7-14z"/>
      <text id="offsetTop" fill="#af6e24" font-size="14" font-weight="normal" transform="rotate(-90 104 83)">
        <tspan x="66.2" y="87.5">offsetTop</tspan>
      </text>
      <text id="clientLeft" fill="#166388" font-size="14" font-weight="normal" transform="rotate(-90 130.5 237)">
        <tspan x="88.5" y="241.5">clientLeft</tspan>
      </text>
      <path id="Line-36" fill="#af6e24" fill-rule="nonzero" d="M117 4.5l7 14h-6v128h6l-7 14-7-14h6v-128h-6l7-14z"/>
      <path id="Line-31" fill="#af6e24" fill-rule="nonzero" d="M631 64.5l7 14h-6v96.499l6 .001-7 14-7-14 6-.001V78.5h-6l7-14z"/>
      <path id="Line-39" fill="#af6e24" fill-rule="nonzero" d="M431 479.09l14 7-14 7-.001-6h-271.36l.001 6-14-7 14-7-.001 6h271.36l.001-6z"/>
      <path id="Line-42" stroke="#af6e24" stroke-dasharray="3,6" stroke-linecap="square" stroke-width="2" d="M450.64 510v-84"/>
      <path id="Line-43" stroke="#af6e24" stroke-dasharray="3,6" stroke-linecap="square" stroke-width="2" d="M141.64 510v-84"/>
      <text id="clientWidth" fill="#af6e24" font-size="14" font-weight="normal">
        <tspan x="261.3" y="480">clientWidth</tspan>
      </text>
      <path id="Line-41" fill="#af6e24" fill-rule="nonzero" d="M100 156.09l14 7-14 7v-6H18.639l.001 6-14-7 14-7-.001 6H100v-6z"/>
      <text id="clientTop" fill="#166388" font-size="14" font-weight="normal">
        <tspan x="147.7" y="178">clientTop</tspan>
      </text>
      <text id="offsetLeft" fill="#af6e24" font-size="14" font-weight="normal">
        <tspan x="17.5" y="154">offsetLeft</tspan>
      </text>
      <path id="Line-40" fill="#af6e24" fill-rule="nonzero" d="M475 522.09l14 7-14 7-.001-6h-340.36l.001 6-14-7 14-7-.001 6h340.36l.001-6z"/>
      <path id="Line-45" stroke="#af6e24" stroke-dasharray="3,6" stroke-linecap="square" stroke-width="2" d="M490.64 551V447"/>
      <path id="Line-44" stroke="#af6e24" stroke-dasharray="3,6" stroke-linecap="square" stroke-width="2" d="M116.64 551V447"/>
      <text id="offsetWidth" fill="#af6e24" font-size="14" font-weight="normal">
        <tspan x="258.3" y="523">offsetWidth</tspan>
      </text>
      <path id="Rectangle-233" stroke="#af6e24" stroke-width="2" d="M1 1h668v600H1z"/>
      <g id="Scrollbar" transform="translate(450 187)">
        <rect id="Rectangle-19" width="15" height="239" x=".5" y=".5" fill="#d1cfcd" stroke="#d1cfcd" rx="3"/>
        <g id="Rectangle-18-+-Triangle-1">
          <rect id="Rectangle-18" width="15" height="19" x=".5" y=".5" fill="url(#linearGradient-1)" stroke="#d1cfcd" rx="3"/>
          <path id="Triangle-1" fill="#7e7c7b" d="M8 7l3.2 6H4.8z"/>
        </g>
        <g id="Rectangle-18-+-Triangle-2" transform="matrix(1 0 0 -1 0 240)">
          <rect id="Rectangle-18" width="15" height="19" x=".5" y=".5" fill="url(#linearGradient-1)" stroke="#d1cfcd" rx="3"/>
          <path id="Triangle-1" fill="#7e7c7b" d="M8 7l3.2 6H4.8z"/>
        </g>
        <g id="Rectangle-18-+-Triangle-3-+-Group" transform="translate(0 50)">
          <g id="Rectangle-18-+-Triangle-3" fill="url(#linearGradient-2)" stroke="#d1cfcd" transform="matrix(1 0 0 -1 0 51)">
            <rect id="Rectangle-18" width="15" height="50" x=".5" y=".5" rx="3"/>
          </g>
          <g id="Group" fill="#d1cfcd" stroke="#7e7c7b" transform="translate(4 20)">
            <path id="Rectangle-22" d="M.5.5h7v1h-7z"/>
            <path id="Rectangle-23" d="M.5 3.5h7v1h-7z"/>
            <path id="Rectangle-24" d="M.5 6.5h7v1h-7z"/>
            <path id="Rectangle-25" d="M.5 9.5h7v1h-7z"/>
          </g>
        </g>
      </g>
      <g id="Group" transform="translate(115.676 162.5)">
        <g id="Line-4-+-Line-5" stroke="#166388" stroke-linecap="square" stroke-width="2" transform="translate(22.324 18.5)">
          <path id="Line-4" d="M2.5.5L0 6" transform="matrix(1 0 0 -1 0 6)"/>
          <path id="Line-5" d="M5.5.5L3 6" transform="rotate(180 4.5 3)"/>
        </g>
        <g id="Line-4-+-Line-6" stroke="#166388" stroke-linecap="square" stroke-width="2" transform="matrix(1 0 0 -1 22.324 6.5)">
          <path id="Line-4" d="M2.5.5L0 6" transform="matrix(1 0 0 -1 0 6)"/>
          <path id="Line-5" d="M5.5.5L3 6" transform="rotate(180 4.5 3)"/>
        </g>
        <path id="Line-49" fill="#166388" stroke="#166388" stroke-linecap="round" stroke-linejoin="bevel" stroke-width="2" d="M25.824 25.5h-25"/>
        <path id="Line-50" fill="#166388" stroke="#166388" stroke-linecap="round" stroke-linejoin="bevel" stroke-width="2" d="M25.324 25V0"/>
        <path id="Line-4" fill="#166388" fill-rule="nonzero" d="M19.328 21.676l.91.414 5.5 2.5.91.413-.589 1.296.09.198-.226.1-.102.227-.198-.09-.385.176-5.5 2.5-.91.414-.828-1.82.91-.414 4.297-1.954-3.797-1.726-.91-.413.828-1.821zM7.32 21.676l.828 1.82-.91.414-3.798 1.726 4.298 1.954.91.413-.827 1.821-.91-.414-5.5-2.5-.387-.176-.196.09-.103-.225-.225-.102.089-.198L0 25.003l.91-.413 5.5-2.5.91-.414z"/>
      </g>
    </g>
    <g font-size="14">
      <text xmlns="http://www.w3.org/2000/svg" id="&lt;div&gt;" fill="#af6e24" font-weight="bold">
        <tspan x="280" y="160">&lt;div&gt;</tspan>
      </text>
      <text xmlns="http://www.w3.org/2000/svg" id="&lt;border&gt;" fill="#af6e24" font-weight="bold">
        <tspan x="268" y="180">&lt;border&gt;</tspan>
      </text>
      <text xmlns="http://www.w3.org/2000/svg" id="&lt;padding&gt;" fill="#af6e24" font-weight="bold">
        <tspan x="264" y="202">&lt;padding&gt;</tspan>
      </text>
    </g>
  </g>
  <text xmlns="http://www.w3.org/2000/svg" id="offsetParent-&lt;MAIN&gt;-" fill="#af6e24" font-weight="bold">
    <tspan y="16">offsetParent &lt;MAIN&gt; </tspan>
  </text>
</svg>
